
<svg xmlns="http://www.w3.org/2000/svg" xmlns:xlink="http://www.w3.org/1999/xlink" zoomAndPan="magnify" preserveAspectRatio="xMidYMid meet" version="1.0" viewBox="30.14 156.8 317.08 76.99"><defs><g/><clipPath id="57ef31ee1d"><path d="M 37.5 221.078125 L 337.5 221.078125 L 337.5 233.789062 L 37.5 233.789062 Z M 37.5 221.078125 " clip-rule="nonzero"/></clipPath><clipPath id="ed28523089"><path d="M 37.5 221.078125 L 40.210938 233.621094 L 337.5 221.757812 L 337.328125 221.078125 Z M 37.5 221.078125 " clip-rule="nonzero"/></clipPath></defs><g fill="#fff" fill-opacity="1"><g transform="translate(25.629322, 209.127894)"><g><path d="M 4.515625 0 L 4.515625 -50.1875 L 43.296875 -50.1875 L 43.296875 -41.15625 L 14.90625 -41.15625 L 14.90625 -29.3125 L 33.765625 -29.3125 L 33.765625 -20.578125 L 14.90625 -20.578125 L 14.90625 0 Z M 4.515625 0 "/></g></g></g><g fill="#fff" fill-opacity="1"><g transform="translate(69.562139, 209.127894)"><g><path d="M 3.875 0 L 3.875 -37.34375 L 13.6875 -37.34375 L 13.6875 -33.265625 C 14.882812 -34.890625 16.332031 -36.117188 18.03125 -36.953125 C 19.726562 -37.785156 21.601562 -38.203125 23.65625 -38.203125 C 24.613281 -38.160156 25.414062 -38.078125 26.0625 -37.953125 C 26.707031 -37.835938 27.269531 -37.632812 27.75 -37.34375 L 27.75 -28.75 C 27.03125 -29.082031 26.238281 -29.332031 25.375 -29.5 C 24.519531 -29.664062 23.632812 -29.75 22.71875 -29.75 C 20.8125 -29.75 19.054688 -29.269531 17.453125 -28.3125 C 15.847656 -27.351562 14.59375 -25.96875 13.6875 -24.15625 L 13.6875 0 Z M 3.875 0 "/></g></g></g><g fill="#fff" fill-opacity="1"><g transform="translate(96.867654, 209.127894)"><g><path d="M 37.34375 -4.65625 C 35.050781 -2.789062 32.695312 -1.425781 30.28125 -0.5625 C 27.875 0.289062 25.1875 0.71875 22.21875 0.71875 C 19.40625 0.71875 16.765625 0.21875 14.296875 -0.78125 C 11.835938 -1.789062 9.710938 -3.15625 7.921875 -4.875 C 6.128906 -6.59375 4.71875 -8.632812 3.6875 -11 C 2.664062 -13.363281 2.15625 -15.910156 2.15625 -18.640625 C 2.15625 -21.316406 2.644531 -23.835938 3.625 -26.203125 C 4.601562 -28.566406 5.953125 -30.617188 7.671875 -32.359375 C 9.390625 -34.109375 11.429688 -35.484375 13.796875 -36.484375 C 16.160156 -37.492188 18.679688 -38 21.359375 -38 C 23.992188 -38 26.441406 -37.484375 28.703125 -36.453125 C 30.972656 -35.421875 32.929688 -34.019531 34.578125 -32.25 C 36.234375 -30.488281 37.523438 -28.375 38.453125 -25.90625 C 39.390625 -23.445312 39.859375 -20.785156 39.859375 -17.921875 L 39.859375 -15.34375 L 12.046875 -15.34375 C 12.710938 -13 14 -11.109375 15.90625 -9.671875 C 17.820312 -8.242188 20.070312 -7.53125 22.65625 -7.53125 C 24.28125 -7.53125 25.804688 -7.789062 27.234375 -8.3125 C 28.671875 -8.84375 29.890625 -9.582031 30.890625 -10.53125 Z M 21.140625 -29.890625 C 18.898438 -29.890625 16.96875 -29.207031 15.34375 -27.84375 C 13.71875 -26.488281 12.59375 -24.660156 11.96875 -22.359375 L 30.25 -22.359375 C 29.625 -24.566406 28.488281 -26.375 26.84375 -27.78125 C 25.195312 -29.1875 23.296875 -29.890625 21.140625 -29.890625 Z M 21.140625 -29.890625 "/></g></g></g><g fill="#fff" fill-opacity="1"><g transform="translate(137.001991, 209.127894)"><g><path d="M 37.34375 -4.65625 C 35.050781 -2.789062 32.695312 -1.425781 30.28125 -0.5625 C 27.875 0.289062 25.1875 0.71875 22.21875 0.71875 C 19.40625 0.71875 16.765625 0.21875 14.296875 -0.78125 C 11.835938 -1.789062 9.710938 -3.15625 7.921875 -4.875 C 6.128906 -6.59375 4.71875 -8.632812 3.6875 -11 C 2.664062 -13.363281 2.15625 -15.910156 2.15625 -18.640625 C 2.15625 -21.316406 2.644531 -23.835938 3.625 -26.203125 C 4.601562 -28.566406 5.953125 -30.617188 7.671875 -32.359375 C 9.390625 -34.109375 11.429688 -35.484375 13.796875 -36.484375 C 16.160156 -37.492188 18.679688 -38 21.359375 -38 C 23.992188 -38 26.441406 -37.484375 28.703125 -36.453125 C 30.972656 -35.421875 32.929688 -34.019531 34.578125 -32.25 C 36.234375 -30.488281 37.523438 -28.375 38.453125 -25.90625 C 39.390625 -23.445312 39.859375 -20.785156 39.859375 -17.921875 L 39.859375 -15.34375 L 12.046875 -15.34375 C 12.710938 -13 14 -11.109375 15.90625 -9.671875 C 17.820312 -8.242188 20.070312 -7.53125 22.65625 -7.53125 C 24.28125 -7.53125 25.804688 -7.789062 27.234375 -8.3125 C 28.671875 -8.84375 29.890625 -9.582031 30.890625 -10.53125 Z M 21.140625 -29.890625 C 18.898438 -29.890625 16.96875 -29.207031 15.34375 -27.84375 C 13.71875 -26.488281 12.59375 -24.660156 11.96875 -22.359375 L 30.25 -22.359375 C 29.625 -24.566406 28.488281 -26.375 26.84375 -27.78125 C 25.195312 -29.1875 23.296875 -29.890625 21.140625 -29.890625 Z M 21.140625 -29.890625 "/></g></g></g><g fill="#fff" fill-opacity="1"><g transform="translate(177.136336, 209.127894)"><g><path d="M 13.6875 -52.328125 L 13.6875 0 L 3.875 0 L 3.875 -50.1875 Z M 13.6875 -52.328125 "/></g></g></g><g fill="#fff" fill-opacity="1"><g transform="translate(192.759751, 209.127894)"><g><path d="M 15.703125 0.640625 C 11.679688 0.640625 8.40625 -0.421875 5.875 -2.546875 C 3.34375 -4.671875 2.078125 -7.429688 2.078125 -10.828125 C 2.078125 -14.359375 3.4375 -17.128906 6.15625 -19.140625 C 8.882812 -21.148438 12.640625 -22.15625 17.421875 -22.15625 C 18.953125 -22.15625 20.476562 -22.035156 22 -21.796875 C 23.53125 -21.554688 25.039062 -21.195312 26.53125 -20.71875 L 26.53125 -23.375 C 26.53125 -25.519531 25.859375 -27.140625 24.515625 -28.234375 C 23.179688 -29.335938 21.222656 -29.890625 18.640625 -29.890625 C 17.054688 -29.890625 15.34375 -29.640625 13.5 -29.140625 C 11.664062 -28.640625 9.578125 -27.863281 7.234375 -26.8125 L 3.65625 -34.046875 C 6.570312 -35.390625 9.398438 -36.394531 12.140625 -37.0625 C 14.890625 -37.726562 17.601562 -38.0625 20.28125 -38.0625 C 25.300781 -38.0625 29.207031 -36.851562 32 -34.4375 C 34.800781 -32.03125 36.203125 -28.628906 36.203125 -24.234375 L 36.203125 0 L 26.53125 0 L 26.53125 -2.578125 C 24.945312 -1.484375 23.28125 -0.671875 21.53125 -0.140625 C 19.789062 0.378906 17.847656 0.640625 15.703125 0.640625 Z M 11.46875 -11.046875 C 11.46875 -9.609375 12.085938 -8.46875 13.328125 -7.625 C 14.578125 -6.789062 16.226562 -6.375 18.28125 -6.375 C 19.90625 -6.375 21.394531 -6.578125 22.75 -6.984375 C 24.113281 -7.390625 25.375 -7.976562 26.53125 -8.75 L 26.53125 -14.34375 C 25.332031 -14.8125 24.078125 -15.15625 22.765625 -15.375 C 21.453125 -15.59375 20.078125 -15.703125 18.640625 -15.703125 C 16.390625 -15.703125 14.628906 -15.28125 13.359375 -14.4375 C 12.097656 -13.601562 11.46875 -12.472656 11.46875 -11.046875 Z M 11.46875 -11.046875 "/></g></g></g><g fill="#fff" fill-opacity="1"><g transform="translate(230.672349, 209.127894)"><g><path d="M 3.875 0 L 3.875 -37.34375 L 13.6875 -37.34375 L 13.6875 -34.40625 C 15.125 -35.601562 16.710938 -36.507812 18.453125 -37.125 C 20.203125 -37.75 22.101562 -38.0625 24.15625 -38.0625 C 28.457031 -38.0625 31.992188 -36.675781 34.765625 -33.90625 C 37.535156 -31.132812 38.921875 -27.578125 38.921875 -23.234375 L 38.921875 0 L 29.109375 0 L 29.109375 -21.796875 C 29.109375 -24.140625 28.398438 -26.023438 26.984375 -27.453125 C 25.578125 -28.890625 23.703125 -29.609375 21.359375 -29.609375 C 19.734375 -29.609375 18.265625 -29.285156 16.953125 -28.640625 C 15.640625 -27.992188 14.550781 -27.070312 13.6875 -25.875 L 13.6875 0 Z M 3.875 0 "/></g></g></g><g fill="#fff" fill-opacity="1"><g transform="translate(271.308389, 209.127894)"><g><path d="M 1.9375 0 L 1.9375 -6.953125 L 20.71875 -29.109375 L 2.078125 -29.109375 L 2.078125 -37.34375 L 33.328125 -37.34375 L 33.328125 -30.390625 L 14.40625 -8.25 L 33.765625 -8.25 L 33.765625 0 Z M 1.9375 0 "/></g></g></g><g fill="#fff" fill-opacity="1"><g transform="translate(305.207485, 209.127894)"><g><path d="M 2.15625 -18.640625 C 2.15625 -21.359375 2.664062 -23.898438 3.6875 -26.265625 C 4.71875 -28.640625 6.128906 -30.695312 7.921875 -32.4375 C 9.710938 -34.1875 11.828125 -35.5625 14.265625 -36.5625 C 16.703125 -37.5625 19.304688 -38.0625 22.078125 -38.0625 C 24.847656 -38.0625 27.453125 -37.5625 29.890625 -36.5625 C 32.328125 -35.5625 34.441406 -34.1875 36.234375 -32.4375 C 38.023438 -30.695312 39.4375 -28.640625 40.46875 -26.265625 C 41.5 -23.898438 42.015625 -21.359375 42.015625 -18.640625 C 42.015625 -15.910156 41.5 -13.363281 40.46875 -11 C 39.4375 -8.632812 38.023438 -6.59375 36.234375 -4.875 C 34.441406 -3.15625 32.328125 -1.789062 29.890625 -0.78125 C 27.453125 0.21875 24.847656 0.71875 22.078125 0.71875 C 19.304688 0.71875 16.703125 0.21875 14.265625 -0.78125 C 11.828125 -1.789062 9.710938 -3.15625 7.921875 -4.875 C 6.128906 -6.59375 4.71875 -8.632812 3.6875 -11 C 2.664062 -13.363281 2.15625 -15.910156 2.15625 -18.640625 Z M 22.078125 -7.8125 C 24.941406 -7.8125 27.378906 -8.863281 29.390625 -10.96875 C 31.398438 -13.070312 32.40625 -15.628906 32.40625 -18.640625 C 32.40625 -21.703125 31.398438 -24.28125 29.390625 -26.375 C 27.378906 -28.476562 24.941406 -29.53125 22.078125 -29.53125 C 19.210938 -29.53125 16.773438 -28.476562 14.765625 -26.375 C 12.753906 -24.28125 11.75 -21.703125 11.75 -18.640625 C 11.75 -15.628906 12.753906 -13.070312 14.765625 -10.96875 C 16.773438 -8.863281 19.210938 -7.8125 22.078125 -7.8125 Z M 22.078125 -7.8125 "/></g></g></g><g clip-path="url(#57ef31ee1d)"><g clip-path="url(#ed28523089)"><path fill="#fff" d="M 37.5 221.078125 L 337.5 221.078125 L 337.5 233.535156 L 37.5 233.535156 Z M 37.5 221.078125 " fill-opacity="1" fill-rule="nonzero"/></g></g></svg>