<svg width="341" height="370" viewBox="0 0 341 370" fill="none" xmlns="http://www.w3.org/2000/svg">
<path d="M128.05 71.6C129.3 73.6 128.7 76.3 126.7 77.55L108.2 89.1C106.2 90.35 103.5 89.75 102.25 87.75L96.35 78.3C95.1 76.3 95.7 73.6 97.7 72.35L116.2 60.8C118.2 59.55 120.9 60.15 122.15 62.15L128.05 71.6Z" fill="#C9BEDE"/>
<path d="M118.7 60.15C117.85 60.1 116.95 60.3 116.15 60.8L97.65 72.35C96.9 72.85 96.3 73.5 96 74.3L102.25 75.6L114.1 78.05L117.1 66.3L118.7 60.15Z" fill="#3A3F48"/>
<path d="M112 53.95L93.6 65.5L99.45 74.85L99.55 75.05L102.25 75.6L114.1 78.05L117.15 66.3L117.9 63.35L116.25 60.75L112 53.95Z" fill="#247DFF"/>
<path d="M99.4 66.95L110.15 60.1" stroke="white" stroke-width="0.8095" stroke-miterlimit="10"/>
<path d="M101.1 69.7L111.85 62.9" stroke="white" stroke-width="0.8095" stroke-miterlimit="10"/>
<path d="M102.8 72.7L113.55 65.85" stroke="white" stroke-width="0.8095" stroke-miterlimit="10"/>
<path d="M219.75 133.15C219.75 133.15 196.05 111.35 215.15 101.25C234.25 91.15 325.6 102.75 304.6 60.1C283.6 17.45 231.6 11 231.6 11" stroke="#A8C1EF" stroke-width="1.5" stroke-miterlimit="10" stroke-linecap="round" stroke-linejoin="round" stroke-dasharray="10.82 10.82"/>
<path opacity="0.7" d="M222.95 11.65L198.9 3.10001L221.25 15.7" fill="#E4F2EA"/>
<path d="M224.55 5.95L222.4 11L209.25 5.5L224.55 5.95Z" fill="#E4F2EA"/>
<path d="M224.55 5.95L222.4 11L209.25 5.5L224.55 5.95Z" fill="#2C799B"/>
<path d="M198.9 3.1L220.2 0.5L224.55 5.95L209.25 5.5L228.25 9.15L231.6 14.75L198.9 3.1Z" fill="#78C2EA"/>
<path d="M198.9 3.10001L221.25 15.7L222.95 11.65L198.9 3.10001Z" fill="#E4F2EA"/>
<path d="M198.9 3.10001L221.25 15.7L222.95 11.65L198.9 3.10001Z" fill="#59A7C9"/>
<path d="M320.3 123.8C320.3 125.9 318.6 127.6 316.5 127.6H278.3C276.2 127.6 274.5 125.9 274.5 123.8V115.3C274.5 113.2 276.2 111.5 278.3 111.5H316.5C318.6 111.5 320.3 113.2 320.3 115.3V123.8Z" fill="#7CCFE0"/>
<path d="M283.5 123.25C285.543 123.25 287.2 121.593 287.2 119.55C287.2 117.507 285.543 115.85 283.5 115.85C281.457 115.85 279.8 117.507 279.8 119.55C279.8 121.593 281.457 123.25 283.5 123.25Z" fill="white"/>
<path d="M314.6 116.75H289.35V117.45H314.6V116.75Z" fill="white"/>
<path d="M304.05 119.1H289.35V119.8H304.05V119.1Z" fill="white"/>
<path d="M307.7 121.6H289.35V122.3H307.7V121.6Z" fill="white"/>
<path d="M204.9 133.2C204.9 133.2 238.9 162.35 240.8 160.1C242.7 157.85 246.6 106.2 246.6 106.2L258.85 104.4C258.85 104.4 268.2 168.15 253.65 185.6C239.1 203.05 210.4 157 210.4 157C210.4 157 199.7 143.3 202.1 140.1C204.45 137 204.9 133.2 204.9 133.2Z" fill="#FDA6C8"/>
<path d="M237.3 68.8L239.55 105.1C239.65 106.95 241.2 108.35 243.05 108.3L255.45 108C257.4 107.95 258.9 106.35 258.8 104.4L257.05 68.35C256.95 66.5 255.45 65.05 253.6 65.1L240.7 65.15C238.75 65.2 237.15 66.85 237.3 68.8Z" fill="#6F47DD"/>
<path d="M243 108.7C241 108.7 239.3 107.15 239.2 105.1L236.95 68.8C236.9 67.75 237.25 66.75 237.95 65.95C238.65 65.15 239.65 64.75 240.7 64.75L253.6 64.7C255.65 64.7 257.3 66.3 257.4 68.35L259.15 104.4C259.2 105.45 258.85 106.45 258.15 107.2C257.45 107.95 256.5 108.4 255.45 108.4L243.05 108.7H243ZM253.65 65.5L240.7 65.55C239.85 65.55 239.05 65.9 238.5 66.5C237.9 67.1 237.65 67.95 237.7 68.75L239.95 105.05C240.05 106.7 241.4 107.95 243.05 107.9L255.45 107.6C256.3 107.6 257.05 107.25 257.6 106.65C258.15 106.05 258.45 105.25 258.4 104.4L256.65 68.35C256.6 66.75 255.25 65.5 253.65 65.5Z" fill="black"/>
<path d="M252.95 70.05C253.558 70.05 254.05 69.5575 254.05 68.95C254.05 68.3425 253.558 67.85 252.95 67.85C252.342 67.85 251.85 68.3425 251.85 68.95C251.85 69.5575 252.342 70.05 252.95 70.05Z" fill="black"/>
<path d="M253.45 79.9C252.6 81.65 254.55 83.15 254.55 83.15C254.55 83.15 252.5 83.35 252.55 85C252.6 86.65 254 87.55 254 87.55C254 87.55 252.6 87.4 252.3 88.85C252.05 90.35 253.15 91.45 253.15 91.45C253.15 91.45 251.85 91.6 252.15 93.55C252.45 95.5 256.6 98.5 258.5 98.15L259 105.4C259 105.4 261.05 98.05 261.05 97.75C261.05 97.45 262.05 96.75 261.5 94.8C261.5 94.8 263.35 93.25 261.8 90.7C261.8 90.7 263.55 90.1 261.7 86.65C261.7 86.65 263.3 86.4 262 82.75C260.8 79.2 254.2 78.35 253.45 79.9Z" fill="#FDA6C8"/>
<path d="M260.1 291.05C254.8 295.55 248.9 299.2 242.6 302.2C207.15 319 159.85 314.7 148.25 314.7C25.8 301.1 73.6 160.1 117.55 124.85C122 121.3 126.4 118.8 130.6 117.65C176.2 105 189.55 129.65 189.55 129.65L273.75 209.2C273.75 209.15 295.05 261.45 260.1 291.05Z" fill="#DC3701"/>
<path d="M242.6 302.2C207.15 319 159.85 314.7 148.25 314.7C25.8 301.1 73.6 160.1 117.55 124.85C122.85 126.65 128.95 130.35 133.55 137.9C143.7 154.65 169.2 238.7 169.2 238.7C169.2 238.7 176.35 250.4 182.55 263.4C188.35 275.65 207.7 304.85 242.6 302.2Z" fill="url(#paint0_linear_4_169)"/>
<path d="M111.15 205.65L127.55 141.35C127.55 141.35 128.25 137.35 133.9 134.65C139.6 131.9 163.85 120.05 163.85 120.05H179.85C179.85 120.05 186.35 124.85 188.5 127C188.5 127 207.1 127.15 208.75 136.45L240.8 160.1L251.85 187L111.15 205.65Z" fill="#4053F2"/>
<path d="M104.15 217.65C104.15 217.65 103.25 201.6 103.65 199.4C104.05 197.2 111.9 190.75 122.5 189.35C133.1 187.95 133 197 133 197L104.15 217.65Z" fill="#3B00BF"/>
<path d="M178.85 121.4C179.35 125.65 180.9 136.15 180.9 140.5C180.9 144.75 177.1 155.7 175.3 156.95C175.25 157 175.2 157 175.15 157.05C175.15 157.05 165.65 153.4 164.4 129.9C163.55 114.2 162.6 107.25 162.1 104.35C161.85 102.9 161.7 102.45 161.7 102.45L170.5 101.75L181.3 115.75C181.25 115.8 178.35 117.15 178.85 121.4Z" fill="#FDB2D0"/>
<path d="M175.3 156.95C175.25 157 175.2 157 175.15 157.05C175.15 157.05 165.65 153.4 164.4 129.9C163.55 114.2 162.6 107.25 162.1 104.35L163.1 104.15L170.2 108.5C170.2 108.5 169.5 126 170.2 137.1C170.65 144.3 173.4 152.3 175.3 156.95Z" fill="#E079A8"/>
<path d="M180.85 183.8C180.85 183.8 121.9 194.5 109.4 208.15C96.9 221.8 107.85 224.9 122.65 224.75C137.45 224.6 177.6 191.4 177.6 191.4L187.4 193.6L193.85 188.3C193.85 188.3 183.25 183.35 180.85 183.8Z" fill="#FDA6C8"/>
<path d="M195.2 187.3L167.45 208.8L244.95 210.15L262.95 187.3H195.2Z" fill="#050505"/>
<path d="M272.45 140.55L262.95 187.3H195.2C195.2 187.3 202.8 145.35 203.7 138.55C204.6 131.75 208.3 132.85 208.3 132.85C208.3 132.85 213 133 219.8 133.15C236.45 133.6 265.7 134.4 268.9 134.4C273.3 134.4 272.45 140.55 272.45 140.55Z" fill="#C2D3FF"/>
<path d="M203.55 139.4L195.2 187.3H214.45L268.1 134.4C250.75 134.25 211.6 132.5 208.45 132.65C203.45 132.8 203.55 139.4 203.55 139.4Z" fill="#D7E3FF"/>
<path d="M240.04 163.404C240.406 160.5 238.658 157.888 236.138 157.571C233.617 157.254 231.277 159.352 230.912 162.256C230.547 165.16 232.294 167.772 234.815 168.089C237.335 168.406 239.675 166.308 240.04 163.404Z" fill="#F5F9FF"/>
<path d="M304.2 190.95C304.2 194.8 304 246.95 286.7 269.35C278.4 286.1 264.8 314.35 263.4 321.9C263.3 322.35 263.3 322.7 263.3 323C263.3 323 258.7 322.35 258.05 324.3C258.05 324.3 246.95 311.7 237.55 311.9C237.55 311.9 254.8 292.05 257.5 272.1C260.2 252.1 261.9 223.05 265.95 213.85C265.95 213.85 233.45 219.85 228.35 222.8L221.95 208.7C221.95 208.7 222 208.65 222.15 208.5C225.25 205.55 263.75 169.6 301.85 175.35C306.15 182.4 304.2 187.1 304.2 190.95Z" fill="#100F51"/>
<path d="M263.4 321.9C263.3 322.35 263.3 322.7 263.3 323C263.3 323 258.7 322.35 258.05 324.3C258.05 324.3 246.95 311.7 237.55 311.9C237.55 311.9 239.95 309.15 243.1 304.65C244.9 306 246.7 307.3 248.5 308.45C253.3 311.6 257.95 314.8 262.3 317.8C262.7 319.25 263.05 320.65 263.4 321.9Z" fill="#FDB2D0"/>
<path d="M260.15 301.5C259.9 306.45 261.05 312.65 262.3 317.75C257.95 314.75 253.3 311.55 248.5 308.4C246.75 307.25 244.95 305.95 243.1 304.6C245.35 301.4 247.95 297.35 250.35 292.8C253.65 286.55 256.55 279.3 257.5 272.05C260.2 252.05 261.9 223 265.95 213.8C265.95 213.8 233.45 219.8 228.35 222.75L221.95 208.65C221.95 208.65 222 208.6 222.15 208.45C237.15 201.85 287.05 180.05 290.25 182.7C294 185.8 288.4 196.65 287.15 202.25C285.9 207.85 265.75 287.6 261.4 295.95C260.65 297.45 260.25 299.35 260.15 301.5Z" fill="black"/>
<path d="M279.7 302.4C272.8 309.7 269.5 317.75 268.1 321.85C262.35 317.75 255.5 313.05 248.5 308.45C230.1 296.35 208.6 272 201.4 261.45C194.2 250.9 195.85 225.55 195.85 225.55C195.85 225.55 198.45 223.75 173.6 236.65C148.75 249.5 132.15 242.3 124.05 231.6C123.15 230.4 122.55 229.3 122.15 228.2C119.15 219.6 131.25 214.6 131.25 214.6C164.65 196.7 176.15 197.1 200.4 193.7C224.65 190.25 230.3 222.2 236.6 238.35C241.5 251.05 268.5 287.55 279.7 302.4Z" fill="#161668"/>
<path d="M272.65 311.9C270.3 315.9 268.9 319.5 268.1 321.85C266.25 320.55 264.3 319.2 262.3 317.75C257.95 314.75 253.3 311.55 248.5 308.4C246.75 307.25 244.95 305.95 243.1 304.6C226.05 291.75 207.9 270.95 201.35 261.45C194.15 250.9 195.8 225.55 195.8 225.55C195.8 225.55 198.4 223.75 173.55 236.65C148.7 249.5 132.1 242.3 124 231.6C123.1 230.4 122.5 229.3 122.1 228.2C137.4 221.4 177.35 203.7 184.1 201.7C192.5 199.2 206.15 195.2 210.5 212.25C214.85 229.3 215.2 250.15 223.55 266.55C225.6 270.55 237.1 280.8 250.35 292.8C253.5 295.65 256.8 298.55 260.15 301.5C264.25 305 268.45 308.55 272.65 311.9Z" fill="black"/>
<path d="M301.25 345.85C299.75 345.85 298.3 344.55 297 343.4C296.75 343.2 296.55 343 296.3 342.8C295.75 342.35 295.35 342.05 295 341.85C293.5 341.05 285.15 334.1 280.75 330.4L285.15 310.5L335.25 274.8C335.3 274.8 335.45 274.8 335.45 274.8C337.15 274.8 338.2 275.2 338.85 276C340.6 278.15 339.55 284 337.75 292.7C335.1 305.65 328.05 315.3 324.3 320.5C324.05 320.85 323.8 321.2 323.55 321.5C320.25 326.15 303.35 344.35 302.1 345.65C301.85 345.8 301.55 345.85 301.25 345.85Z" fill="#FEFEFE"/>
<path d="M335.5 275.25C337.5 275.25 338.2 275.85 338.55 276.25C340.15 278.25 339.1 284 337.35 292.55C334.7 305.4 327.75 315 324 320.15C323.75 320.5 323.5 320.85 323.25 321.15C320 325.65 303.65 343.3 301.9 345.2C301.7 345.3 301.45 345.3 301.25 345.3C299.95 345.3 298.55 344.05 297.35 342.95C297.1 342.75 296.9 342.55 296.65 342.35C296.1 341.85 295.65 341.55 295.25 341.35C293.9 340.65 286.35 334.4 281.35 330.15L285.65 310.75L335.5 275.25C335.45 275.25 335.45 275.25 335.5 275.25ZM335.5 274.25C335.4 274.25 335.25 274.25 335.1 274.25L284.7 310.15L280.15 330.55C280.15 330.55 292.7 341.2 294.7 342.3C295.1 342.5 295.5 342.8 295.95 343.2C297.45 344.5 299.25 346.4 301.2 346.4C301.6 346.4 302.05 346.3 302.45 346.1C302.45 346.1 320.5 326.65 324 321.8C327.5 316.95 335.4 306.75 338.3 292.8C341.15 279.1 341.65 274.3 335.5 274.25Z" fill="black"/>
<path d="M295.95 343.15C295.5 342.75 295.1 342.45 294.7 342.25C292.7 341.2 280.15 330.5 280.15 330.5L284.7 310.1L335.1 274.2C335.25 274.2 335.35 274.2 335.5 274.2C340.95 302.6 302.95 337.15 295.95 343.15Z" fill="#020001"/>
<path d="M290.15 364.6C268.85 379.95 238.9 345.3 230.85 333.4C225.9 326.05 226.2 322.25 227.15 320.4C227.75 319.25 228.6 318.9 228.6 318.9L238.9 310.3L263.35 322.95C266 336.4 283.4 351.8 283.4 351.8C285.3 353.05 286.75 354.45 287.85 355.85C290.55 359.3 291.1 362.75 290.15 364.6Z" fill="#020001"/>
<path d="M290.15 364.6C268.85 379.95 238.9 345.3 230.85 333.4C225.9 326.05 226.2 322.25 227.15 320.4C230.45 319.85 234.9 320.1 237.7 324.25C242.7 331.65 247.1 340.6 257.9 344.7C266.1 347.8 280.3 351.7 287.85 355.85C290.55 359.3 291.1 362.75 290.15 364.6Z" fill="#FEFEFE" stroke="black" stroke-width="2" stroke-miterlimit="10"/>
<path d="M153.55 124.4C153.55 124.4 151.3 125 151.3 129C151.3 133 151.3 150.05 151.3 150.05C151.3 150.05 155.1 141.1 159.5 139.2C160.6 139.2 162.8 139.3 163 142.8C163.2 146.3 165.45 150.8 169.15 151.3L163.7 120L153.55 124.4Z" fill="#3B00BF"/>
<path d="M178.8 119.6C178.8 119.6 181.2 119 181.8 121.15C182.4 123.3 184.8 130 187.25 132.95C189.7 135.9 190.55 137.25 190.55 137.25C190.55 137.25 187.7 136.45 185.75 133.95C185.75 133.95 184.3 134.65 184.65 136.5C185 138.35 183.6 146.85 179.8 146.85L178.8 119.6Z" fill="#3B00BF"/>
<path d="M193.2 92.75C195.382 92.75 197.15 89.9294 197.15 86.45C197.15 82.9706 195.382 80.15 193.2 80.15C191.018 80.15 189.25 82.9706 189.25 86.45C189.25 89.9294 191.018 92.75 193.2 92.75Z" stroke="#5911AA" stroke-width="1.7093" stroke-miterlimit="10"/>
<path d="M195.25 94.3L196.35 112.9C194.4 114.6 192.4 115.7 190.3 116.3C177.7 119.95 163.9 105.85 163.9 105.85C159.95 110.85 157.15 108.45 154.85 103C152.55 97.55 156.1 93.65 156.1 93.65L156.6 73.75L177.65 70.55L186.3 69.25C191.4 72.25 192.9 86.05 192.9 86.05C192.9 86.05 200.65 87.65 200.45 90C200.25 92.4 195.25 94.3 195.25 94.3Z" fill="#FDB2D0"/>
<path d="M190.35 116.3C177.75 119.95 163.95 105.85 163.95 105.85C160 110.85 157.2 108.45 154.9 103C152.6 97.55 156.15 93.65 156.15 93.65L156.65 73.75L177.7 70.55C175.55 72.3 172.9 75.15 173.2 78.05C173.7 82.9 174.35 103.05 178.7 107.5C181.75 110.65 186.4 114.35 190.35 116.3Z" fill="#FF84B3"/>
<path d="M191.5 78C189.25 79 188.95 80.2 190.1 81.1C191.95 79.85 192.75 79.4 194.3 79.6C195.85 79.8 195 78.05 194.65 77.95C194.3 77.85 193.35 77.2 191.5 78Z" fill="#1A137E"/>
<path d="M155.55 100C155.55 100 143.8 94.2 144.55 82.3C145.25 70.4 154.85 67 154.85 67C154.85 67 153.4 54.5 163.9 52.75C174.35 51 176.25 53.95 176.25 53.95C176.25 53.95 182.25 50.6 184 48.15C185.75 45.7 196.7 44.1 199.3 50.7C201.9 57.3 204.05 68.75 185.6 70.65C167.15 72.55 163.5 76.3 163.5 76.3C163.5 76.3 174.45 75.1 174.5 79.8C174.6 84.5 168.4 87 168.4 87C168.4 87 167.35 89.6 168.9 90.95C170.4 92.3 172.15 95.45 170.15 96.75C168.15 98.05 165.15 99.05 162.85 96.85C160.55 94.6 155.55 100 155.55 100Z" fill="#1A137E"/>
<path d="M181 78.95C178.4 81.15 178.45 83 180.3 83.85C182.25 81.4 183.15 80.45 185.25 80.15C187.35 79.85 185.65 77.7 185.15 77.7C184.65 77.7 183.15 77.15 181 78.95Z" fill="#1A137E"/>
<path d="M182.6 100C182.6 100 186.05 98.35 189.2 101.25" stroke="#1A137E" stroke-width="2" stroke-miterlimit="10" stroke-linecap="round" stroke-linejoin="round"/>
<path d="M167.45 92.3L179.8 87.25" stroke="#5911AA" stroke-width="2" stroke-miterlimit="10"/>
<path d="M190.65 85.4L192.85 85.15" stroke="#5911AA" stroke-width="2" stroke-miterlimit="10"/>
<path d="M185.25 92.75C188.26 92.75 190.7 89.9294 190.7 86.45C190.7 82.9706 188.26 80.15 185.25 80.15C182.24 80.15 179.8 82.9706 179.8 86.45C179.8 89.9294 182.24 92.75 185.25 92.75Z" stroke="#5911AA" stroke-width="2" stroke-miterlimit="10"/>
<path d="M185.457 89.7755C185.894 89.7098 186.089 88.594 185.892 87.2832C185.695 85.9725 185.181 84.9631 184.744 85.0287C184.307 85.0944 184.113 86.2102 184.31 87.521C184.507 88.8318 185.02 89.8411 185.457 89.7755Z" fill="#1A137E"/>
<path d="M134.85 193.4L139.7 157.35" stroke="#3B00BF" stroke-width="3" stroke-miterlimit="10" stroke-linecap="round"/>
<path d="M144.25 159.3L138.15 168.6" stroke="#3B00BF" stroke-width="3" stroke-miterlimit="10" stroke-linecap="round"/>
<path d="M177.3 159.3L176.1 167.15C176.1 167.15 183.05 167.9 179.25 172.45C179.25 172.45 189.2 176.85 189.05 184.45" stroke="#3B00BF" stroke-width="3" stroke-miterlimit="10" stroke-linecap="round"/>
<path d="M290.15 324.65L283.9 333.65C283.9 333.65 281.45 331.45 277.2 328.35C276.85 328.1 276.5 327.85 276.15 327.6C273.85 325.95 271.15 324 268.2 321.9C268.95 319.55 270.4 315.95 272.75 311.95C278.6 316.65 284.55 321 290.15 324.65Z" fill="#FF84B3"/>
<path d="M293.45 319.85L290.15 324.6C284.6 321 278.65 316.6 272.65 311.85C274.4 308.8 276.75 305.5 279.7 302.4C282.7 306.35 284.55 308.8 284.55 308.8L287.1 308.45C284.4 315.4 293.45 319.85 293.45 319.85Z" fill="#FDB2D0"/>
<path d="M30.35 311.9H80.55C80.55 311.9 80.75 272.25 76.4 267.5H33.3C33.3 267.5 27.8 289.7 30.35 311.9Z" fill="#FF9398"/>
<path d="M57.35 117.75L60.85 262.75" stroke="black" stroke-width="1.8226" stroke-miterlimit="10" stroke-linecap="round" stroke-linejoin="round"/>
<path d="M48.55 99.55L56.95 262.75" stroke="black" stroke-width="1.8226" stroke-miterlimit="10" stroke-linecap="round" stroke-linejoin="round"/>
<path d="M41.4 261.45L40.25 200.7" stroke="black" stroke-width="1.8226" stroke-miterlimit="10" stroke-linecap="round" stroke-linejoin="round"/>
<path d="M48.55 157.5L49.5 262.75" stroke="black" stroke-width="1.8226" stroke-miterlimit="10" stroke-linecap="round" stroke-linejoin="round"/>
<path d="M53.65 132.35C48.55 129.25 33.65 129.8 26 149C18.35 168.2 14.1 182.5 21.4 178.8C28.7 175.1 54.05 157.55 56.95 154.55C59.85 151.55 66.65 140.2 53.65 132.35Z" fill="#303D73"/>
<path d="M52.75 221C38.9 211.1 19.95 216.6 21.4 253.55C22.85 290.5 88.6 246.65 52.75 221Z" fill="#303D73"/>
<path d="M56.95 262.75C34.75 262.95 27.2 262.75 27.2 262.75C27.2 262.75 27.75 269.45 30.3 270.05C32.85 270.65 76.3 270.55 76.3 270.55C76.3 270.55 80 270.1 80.45 262.75H56.95Z" fill="#FFB1B2"/>
<path d="M43.05 243.45C33.1 239.65 20.1 242 12.2 260.9C4.29999 279.8 -7.45 309.35 14.6 295.6C36.65 281.85 47.25 277.6 51.3 268.6C55.35 259.6 56.95 248.8 43.05 243.45Z" fill="#00CA9C"/>
<path d="M56.4 197.4C38.8 200.4 36.95 222.35 56.4 237.95C75.85 253.55 89.05 266.95 95.1 268.95C101.15 270.95 114.75 272.8 108.7 247.5C102.65 222.2 99.55 190.05 56.4 197.4Z" fill="#00CA9C"/>
<path d="M42.5 170.8C30.95 161 13.8 174.3 7.95 192.1C2.1 209.9 -7.3 240.75 14 223.85C35.3 206.95 66.6 191.15 42.5 170.8Z" fill="#00CA9C"/>
<path d="M60.45 140.85C43.7 149.2 49.8 166.75 64.5 172.95C79.2 179.2 115.25 198.45 110.25 183.4C105.25 168.4 87.45 127.5 60.45 140.85Z" fill="#00CA9C"/>
<path d="M55.15 115.9C54.65 103.6 67.2 101.6 76.4 103.4C85.6 105.25 103.05 110 100.1 114.4C97.15 118.8 80.95 123.6 76.4 125.25C71.85 126.95 55.7 130.05 55.15 115.9Z" fill="#00CA9C"/>
<path d="M22.65 87.3C33.75 80.1 53.85 83.45 53.65 93.55C53.45 103.65 49.9 104.4 42.5 100.7C35.15 97 16.4 91.3 22.65 87.3Z" fill="#303D73"/>
<path d="M277.7 61.95C276.95 63.2 275.3 63.55 274.05 62.8L262.75 55.75C261.5 55 261.15 53.35 261.9 52.1L265.5 46.35C266.25 45.1 267.9 44.75 269.15 45.5L280.45 52.55C281.7 53.3 282.05 54.95 281.3 56.2L277.7 61.95Z" fill="#410FBA"/>
<path d="M267.7 45.05L270.45 56L281.5 53.75" stroke="white" stroke-width="0.5675" stroke-miterlimit="10"/>
<path d="M281.6 55.75C282.787 55.75 283.75 54.7874 283.75 53.6C283.75 52.4126 282.787 51.45 281.6 51.45C280.413 51.45 279.45 52.4126 279.45 53.6C279.45 54.7874 280.413 55.75 281.6 55.75Z" fill="#F79E29"/>
<defs>
<linearGradient id="paint0_linear_4_169" x1="80.4036" y1="248.738" x2="157.532" y2="221.727" gradientUnits="userSpaceOnUse">
<stop offset="0.0932746" stop-color="#FF8415"/>
<stop offset="1" stop-color="#DC3701"/>
</linearGradient>
</defs>
</svg>
