<svg width="418" height="252" viewBox="0 0 418 252" fill="none" xmlns="http://www.w3.org/2000/svg">
<path d="M4.55002 249.991H410.3" stroke="#020202" stroke-width="4" stroke-miterlimit="10" stroke-linecap="round"/>
<path d="M39.95 249.193H25.6C18.55 249.193 12.85 243.502 12.85 236.464V215H52.7V236.464C52.65 243.502 46.95 249.193 39.95 249.193Z" fill="#685378"/>
<path d="M32.75 215.748C37.8 174.816 19.4 175.615 19.4 175.615" stroke="#9B4D2F" stroke-width="1.0697" stroke-miterlimit="10"/>
<path d="M51.25 175.615C51.25 175.615 33.65 187.795 33.6 196.88" stroke="#9B4D2F" stroke-width="1.0697" stroke-miterlimit="10"/>
<path d="M15.5 200.474C15.5 200.474 29.5 195.782 33.45 207.911" stroke="#9B4D2F" stroke-width="1.0697" stroke-miterlimit="10"/>
<path d="M33.6 201.023C33.6 201.023 43.85 203.569 44.15 213.302" stroke="#9B4D2F" stroke-width="1.0697" stroke-miterlimit="10"/>
<path d="M20.95 171.622C18.95 161.139 1.90001 161.588 0.850006 181.455C0.850006 182.404 24.9 192.537 20.95 171.622Z" fill="url(#paint0_linear_4_54)"/>
<path d="M55.65 164.833C42.15 170.923 51.35 187.196 71.25 187.895C72.15 187.096 82.95 152.503 55.65 164.833Z" fill="url(#paint1_linear_4_54)"/>
<path d="M16.25 197.379C5.00001 189.342 -3.69999 204.367 5.05001 220.69C6.10001 221.04 38.9 213.552 16.25 197.379Z" fill="url(#paint2_linear_4_54)"/>
<path d="M34.7 189.841C22.7 189.592 18.45 204.417 34.7 212.204C44.35 209.858 54.2 190.191 34.7 189.841Z" fill="url(#paint3_linear_4_54)"/>
<path d="M44.85 210.507C35.65 210.307 32.35 223.485 44.85 230.374C52.25 228.327 59.85 210.856 44.85 210.507Z" fill="url(#paint4_linear_4_54)"/>
<path d="M417.15 158.344H323.7V169.974H417.15V158.344Z" fill="#D4B5BA"/>
<path d="M406.45 1.5043H323.7V157.545H406.45V1.5043Z" fill="#F7EFEE"/>
<path d="M328.15 91.7045H322.4V99.8409C322.4 101.289 323.55 102.437 325 102.437H325.55C327 102.437 328.15 101.289 328.15 99.8409V91.7045Z" fill="#94666F"/>
<path d="M398.75 15.0818H332.8V147.811H398.75V15.0818Z" fill="#CBE7F4"/>
<path d="M332.75 65.9472H338.35V62.4031H355.05V65.9472H364V82.4698H380.2V147.661H332.75V65.9472Z" fill="white"/>
<path d="M344.75 74.4331H337.9V81.6212H344.75V74.4331Z" fill="#F7EFEE"/>
<path d="M344.75 92.3035H337.9V99.4915H344.75V92.3035Z" fill="#F7EFEE"/>
<path d="M359.9 87.2119H353.05V94.4H359.9V87.2119Z" fill="#F7EFEE"/>
<path d="M326.45 8.54263H323.65V92.3534H326.45V8.54263Z" fill="#94666F"/>
<path d="M416.65 0.306305H311.75V9.74063H416.65V0.306305Z" fill="#986A73"/>
<path d="M416.65 14.9819H316.25V19.7241H416.65V14.9819Z" fill="#AE8D93"/>
<path d="M416.65 26.1134H316.25V30.8556H416.65V26.1134Z" fill="#AE8D93"/>
<path d="M416.65 37.2948H316.25V42.037H416.65V37.2948Z" fill="#AE8D93"/>
<path d="M416.65 48.4264H316.25V53.1685H416.65V48.4264Z" fill="#AE8D93"/>
<path d="M416.65 59.6078H316.25V64.3499H416.65V59.6078Z" fill="#AE8D93"/>
<path d="M416.65 70.5396H316.25V75.2817H416.65V70.5396Z" fill="#AE8D93"/>
<path d="M255.15 249.592H356.15V120.257C356.15 112.071 349.5 105.432 341.3 105.432H270C261.8 105.432 255.15 112.071 255.15 120.257V249.592Z" fill="#A88F8A"/>
<path d="M235.55 131.488C235.55 131.488 232.5 123.302 236.95 113.967C241.35 104.633 238.7 101.089 238.1 98.4432C237.5 95.7976 237.35 91.5048 237.95 89.7577C237.95 89.7577 227.85 87.4615 238.2 73.2351C248.55 58.9588 261.1 59.458 261.1 59.458C261.1 59.458 278.9 56.3132 284.35 71.5879C289.8 86.8625 293.2 99.8409 297.6 102.886C302 105.931 319.6 114.866 307.7 129.741L235.55 131.488Z" fill="#371841"/>
<path d="M211.25 168.826C211.25 168.826 212.65 175.865 224.35 177.911C236.05 180.008 230.1 172.82 230.1 172.82C230.1 172.82 215.8 167.429 211.25 168.826Z" fill="#4E1E21"/>
<path d="M222.4 229.525C210.35 234.118 194.3 234.268 194.3 234.268L192.65 230.873L186.1 217.446C186.1 217.446 203.85 213.203 205 211.505C206.15 209.808 216.2 189.742 219.35 168.926C219.35 168.926 231.25 170.673 231.4 175.715C231.45 176.863 232.3 188.843 232.85 195.183C233 196.83 233.15 198.078 233.3 198.677C233.95 201.672 234.4 224.983 222.4 229.525Z" fill="#FFC2B5"/>
<path d="M222.4 229.525C210.35 234.118 194.3 234.268 194.3 234.268L192.65 230.873C199.4 230.474 218.1 228.727 223.05 221.489C227.65 214.7 231.35 201.222 232.85 195.183C233 196.83 233.15 198.078 233.3 198.677C233.95 201.672 234.4 224.983 222.4 229.525Z" fill="#FEAC98"/>
<path d="M327.1 182.204C327.1 182.204 323.75 188.094 314.25 186.896C304.7 185.648 313.25 179.409 313.25 179.409L327.1 182.204Z" fill="#4E1E21"/>
<path d="M327 182.304C326.5 182.004 318.35 180.557 318.35 180.557L312.4 208.361L311.5 212.604C311.5 223.835 306.2 248.943 306.2 248.943H208.1L215.05 243.652C234.9 229.575 233.95 200.324 233.05 195.532C232.15 190.74 230.65 175.216 230.65 175.216C227.1 169.026 211.3 168.776 211.3 168.776C211.3 168.776 212.55 167.379 214.85 164.983C217.1 162.587 224.6 146.813 229.4 135.831C234.2 124.849 246.1 123.202 250.5 122.453C254.9 121.705 265.65 117.162 265.65 117.162L280.45 113.269C282.35 115.415 291.35 121.705 298.5 124.849C317.35 126.047 322.55 150.706 322.55 153.202C322.55 155.698 321.45 159.043 324.6 165.432C327.75 171.821 327.8 182.853 327 182.304Z" fill="#8E11B7"/>
<path d="M312.4 208.361L311.5 212.604C311.5 223.835 306.2 248.943 306.2 248.943H251.2C263.15 240.058 274.45 218.943 279.3 214.75C285.4 209.509 285 191.239 282.9 191.239C280.8 191.239 249.25 181.505 267.65 182.703C286.05 183.901 282.55 165.282 282.9 158.294C283.25 151.305 286.2 149.858 286.2 149.858C286.2 149.858 288.55 144.916 289.95 142.32C291.35 139.725 292.05 184.201 292.05 184.201L302.2 190.091L312.4 208.361Z" fill="#75109B"/>
<path d="M237.8 146.513C237.8 146.513 237.95 158.094 236.05 161.638C234.15 165.182 230.45 169.026 231.35 175.765" stroke="black" stroke-width="2" stroke-miterlimit="10" stroke-linecap="round"/>
<path d="M290.8 155.698C290.8 155.698 292.8 182.004 292.05 184.301" stroke="black" stroke-width="2" stroke-miterlimit="10" stroke-linecap="round"/>
<path d="M319.2 181.106C319.2 181.106 312.75 229.975 300.95 239.609C299.45 240.158 278.15 237.412 263.5 235.416C255.7 234.367 249.85 233.519 249.85 233.519C249.85 233.519 243.55 243.203 241.45 243.502C239.35 243.802 226.5 243.502 226.5 243.502L228.6 237.263L222.05 243.652L218.9 243.502C218.9 243.502 234.65 219.342 246.5 218.144H285.1C285.1 218.144 292.2 191.039 292 184.201C292 184.201 300.55 180.607 301.85 179.658C301.85 179.658 308.8 178.959 313.8 179.509C314.2 179.558 314.55 179.608 314.9 179.658C319.9 180.507 319.2 181.106 319.2 181.106Z" fill="#FFC2B5"/>
<path d="M319.2 181.106C319.2 181.106 312.75 229.975 300.95 239.609C299.45 240.158 278.15 237.412 263.5 235.416C275.15 235.266 296.4 234.467 299.25 230.374C302.55 225.632 311.05 191.638 313.85 179.558C314.25 179.608 314.6 179.658 314.95 179.708C319.9 180.507 319.2 181.106 319.2 181.106Z" fill="#FEAC98"/>
<path d="M292.05 184.251C292.05 184.251 310.35 179.159 311.75 187.046C313.2 194.883 314.9 179.758 314.9 179.758C314.9 179.758 310.25 179.259 309.2 179.409C308.15 179.558 301.85 179.758 301.85 179.758L292.05 184.251Z" fill="#FEAC98"/>
<path d="M278.9 130.39C276 134.633 264.9 144.567 260.35 134.883C257.7 129.192 259.05 124.5 260.65 121.655C261.75 119.658 263 118.51 263 118.51L261.75 115.864C260.45 116.413 259.25 116.763 258.15 117.062C256.95 117.312 255.85 117.462 254.85 117.462C242.6 117.362 242.1 98.5431 241.9 96.3467C241.65 93.801 240.15 88.7593 240.15 87.1121C240.15 85.4648 250.1 73.2351 252.55 72.4864C256.7 71.1885 258.35 63.9007 258.35 63.9007C258.45 68.0438 255.05 71.8375 255.05 71.8375C257.15 82.5197 265.3 87.6612 269.75 89.7577C271.5 90.5564 272.7 90.9058 272.7 90.9058C272.65 83.3184 277.95 84.2169 279.35 85.2152C284.9 92.4033 277.85 98.3434 277.85 98.3434C276.45 105.282 280.5 113.368 280.5 113.368C285.45 120.357 281.8 126.147 278.9 130.39Z" fill="#FFC2B5"/>
<path d="M278.9 130.39C276 134.633 264.9 144.567 260.35 134.883C257.7 129.192 259.05 124.5 260.65 121.655C261.75 119.658 263 118.51 263 118.51L261.75 115.864C260.45 116.413 259.25 116.763 258.15 117.062C256.95 117.312 255.85 117.462 254.85 117.462C271.8 111.322 271.1 96.5963 269.7 89.7577C271.45 90.5564 272.65 90.9058 272.65 90.9058C272.6 83.3184 277.9 84.2169 279.3 85.2152C284.85 92.4033 277.8 98.3434 277.8 98.3434C276.4 105.282 280.45 113.368 280.45 113.368C285.45 120.357 281.8 126.147 278.9 130.39Z" fill="#FEAC98"/>
<path d="M271 109.076C269.25 118.51 263.65 121.006 260.6 121.655C261.7 119.658 262.95 118.51 262.95 118.51L261.7 115.864C260.4 116.413 259.2 116.763 258.1 117.062C266.45 113.568 271 109.076 271 109.076Z" fill="#E28F7F"/>
<path d="M263.55 245.199H194.35V249.692H263.55V245.199Z" fill="#EFEFEF"/>
<path d="M77.35 185.099H167.3C170 185.099 172.4 186.647 173.5 189.093L201.1 249.692H100.6L74.1 190.141C73.05 187.745 74.8 185.099 77.35 185.099Z" fill="#E2D5CC"/>
<path d="M70.9 131.438C92.4944 131.438 110 113.962 110 92.4033C110 70.8448 92.4944 53.3681 70.9 53.3681C49.3057 53.3681 31.8 70.8448 31.8 92.4033C31.8 113.962 49.3057 131.438 70.9 131.438Z" stroke="#D2AEB4" stroke-width="3.4569" stroke-miterlimit="10"/>
<path d="M161.9 94.1504H144.75C144 94.1504 143.35 93.5514 143.35 92.7527C143.35 92.0039 143.95 91.355 144.75 91.355H161.9C162.65 91.355 163.3 91.954 163.3 92.7527C163.3 93.5015 162.65 94.1504 161.9 94.1504ZM156.65 98.3434H144.7C143.95 98.3434 143.3 97.7444 143.3 96.9457C143.3 96.197 143.9 95.5481 144.7 95.5481H156.65C157.4 95.5481 158.05 96.1471 158.05 96.9457C158.05 97.6945 157.4 98.3434 156.65 98.3434ZM167.4 87.5613H143.5C139.4 87.5613 136.1 90.8559 136.1 94.9491C136.1 98.3933 138.45 101.239 141.6 102.087L139.65 107.628C139.6 107.778 139.6 107.878 139.6 108.027V108.077C139.6 108.227 139.65 108.377 139.7 108.526V108.576C139.75 108.726 139.85 108.876 139.95 108.976C139.95 108.976 139.95 108.976 139.95 109.026C139.95 109.026 139.95 109.026 140 109.076C140.05 109.125 140.1 109.125 140.1 109.175C140.15 109.225 140.15 109.225 140.2 109.275C140.25 109.275 140.3 109.325 140.3 109.325C140.35 109.325 140.4 109.375 140.45 109.375C140.45 109.375 140.45 109.375 140.5 109.375H140.55C140.7 109.425 140.8 109.425 140.95 109.425C141.1 109.425 141.25 109.375 141.4 109.325C141.45 109.325 141.5 109.275 141.55 109.275C141.65 109.225 141.75 109.175 141.85 109.076L141.9 109.026L148.9 102.237H167.3C171.4 102.237 174.7 98.9424 174.7 94.8492C174.8 90.8559 171.5 87.5613 167.4 87.5613Z" fill="#6FB5A7"/>
<path d="M203.6 118.809H179.35C178.6 118.809 177.95 118.21 177.95 117.412C177.95 116.663 178.55 116.014 179.35 116.014H203.6C204.35 116.014 205 116.613 205 117.412C205 118.21 204.4 118.809 203.6 118.809ZM198.9 122.903H181.95C181.2 122.903 180.55 122.304 180.55 121.505C180.55 120.756 181.15 120.107 181.95 120.107H198.9C199.65 120.107 200.3 120.706 200.3 121.505C200.3 122.254 199.65 122.903 198.9 122.903ZM212.1 119.558C212.1 114.866 208.3 111.072 203.6 111.072H175.25C170.55 111.072 166.75 114.866 166.75 119.558C166.75 124.25 170.55 128.044 175.25 128.044H197.15L205.55 136.131L205.6 136.181C205.7 136.28 205.8 136.33 205.9 136.38C205.95 136.38 206 136.43 206.05 136.43C206.2 136.48 206.35 136.53 206.5 136.53C206.65 136.53 206.8 136.48 206.9 136.48H206.95C206.95 136.48 206.95 136.48 207 136.48C207.05 136.48 207.1 136.43 207.15 136.43C207.2 136.43 207.25 136.38 207.25 136.38C207.3 136.38 207.3 136.33 207.35 136.28C207.4 136.23 207.45 136.23 207.45 136.181C207.45 136.181 207.45 136.181 207.5 136.131C207.5 136.131 207.5 136.131 207.5 136.081C207.6 135.981 207.7 135.831 207.75 135.681V135.631C207.8 135.482 207.85 135.332 207.85 135.182V135.132C207.85 134.983 207.85 134.883 207.8 134.733L205.4 127.894C209.3 126.946 212.1 123.601 212.1 119.558Z" fill="#FF486D"/>
<path d="M165.05 149.309H132.35C131.35 149.309 130.6 148.51 130.6 147.562C130.6 146.563 131.4 145.815 132.35 145.815H165.05C166.05 145.815 166.8 146.613 166.8 147.562C166.8 148.51 166 149.309 165.05 149.309ZM132.35 140.473H157.8C158.8 140.473 159.55 141.272 159.55 142.221C159.55 143.219 158.75 143.968 157.8 143.968H132.35C131.35 143.968 130.6 143.169 130.6 142.221C130.55 141.272 131.35 140.473 132.35 140.473ZM164.7 134.883H131.5C125.95 134.883 121.4 139.425 121.4 144.966C121.4 149.708 124.7 153.701 129.1 154.75L126.35 162.637C126.3 162.786 126.25 162.986 126.25 163.136C126.25 163.186 126.25 163.186 126.25 163.236C126.25 163.435 126.3 163.635 126.35 163.835C126.35 163.885 126.35 163.885 126.4 163.934C126.5 164.134 126.6 164.284 126.75 164.434V164.484C126.75 164.484 126.8 164.484 126.8 164.533C126.85 164.583 126.9 164.633 126.95 164.683C127 164.733 127.05 164.733 127.1 164.783C127.15 164.833 127.2 164.833 127.25 164.883C127.3 164.933 127.35 164.933 127.4 164.983H127.45H127.5C127.65 165.033 127.85 165.083 128.05 165.083C128.25 165.083 128.45 165.033 128.65 164.983C128.7 164.983 128.75 164.933 128.8 164.883C128.95 164.833 129.05 164.733 129.15 164.633C129.2 164.633 129.2 164.583 129.25 164.583L139.05 155.149H164.7C170.25 155.149 174.8 150.607 174.8 145.066C174.8 139.425 170.3 134.883 164.7 134.883Z" fill="#6FB5A7"/>
<path d="M92.5 131.488L94.2 133.934" stroke="#D2AEB4" stroke-width="3.4569" stroke-linecap="round" stroke-linejoin="round"/>
<path d="M97.35 138.577L121.2 173.519" stroke="#D2AEB4" stroke-width="3.4569" stroke-linecap="round" stroke-linejoin="round" stroke-dasharray="11.29 11.29"/>
<path d="M122.8 175.815L124.5 178.311" stroke="#D2AEB4" stroke-width="3.4569" stroke-linecap="round" stroke-linejoin="round"/>
<path d="M70.9 124.799C88.8217 124.799 103.35 110.295 103.35 92.4033C103.35 74.5114 88.8217 60.0071 70.9 60.0071C52.9784 60.0071 38.45 74.5114 38.45 92.4033C38.45 110.295 52.9784 124.799 70.9 124.799Z" fill="#D2AEB4"/>
<path d="M241.8 82.919C241.8 82.919 251.5 77.7277 253.6 70.7892" stroke="#371841" stroke-width="2" stroke-miterlimit="10" stroke-linecap="round"/>
<path d="M255.25 71.7875C255.25 71.7875 254.3 76.5796 255.25 78.3267C256.2 80.0738 258.75 81.5214 258.05 83.6179" stroke="#371841" stroke-miterlimit="10" stroke-linecap="round"/>
<path d="M251.05 92.9025C251.05 92.9025 251.3 99.1421 250.75 100.69C250.15 102.237 249.35 103.535 253.95 102.487" stroke="#E28F7F" stroke-width="2" stroke-miterlimit="10" stroke-linecap="round" stroke-linejoin="round"/>
<path d="M250.25 107.578C250.25 107.578 251.2 106.23 254.25 106.28C257.3 106.33 258.65 106.28 258.65 106.28C258.65 106.28 256.25 109.175 254.85 109.475C253.45 109.774 250 109.974 250.25 107.578Z" fill="#E28F7F"/>
<path d="M256.7 93.751C256.7 93.751 256.65 92.1038 262 92.4532L260.4 93.751C260.4 93.751 261.3 96.4965 258.65 96.4965C256 96.4965 256.7 93.751 256.7 93.751Z" fill="black"/>
<path d="M248.5 95.5481C248.5 95.5481 248.55 94.1005 243.95 94.4499L245.35 95.5481C245.35 95.5481 244.55 97.9441 246.85 97.9441C249.15 97.9441 248.5 95.5481 248.5 95.5481Z" fill="black"/>
<path d="M255.5 89.558C255.45 88.1603 259.85 87.4615 263 88.9091C263 88.9091 258.25 88.7593 257 90.6562C255.5 91.3051 255.5 89.558 255.5 89.558Z" fill="black"/>
<path d="M248.85 90.6063C248.7 89.4083 244.8 89.4083 242.25 91.1054C242.25 91.1054 246.35 90.3068 247.7 91.7544C249.1 92.1038 248.85 90.6063 248.85 90.6063Z" fill="black"/>
<mask id="mask0_4_54" style="mask-type:luminance" maskUnits="userSpaceOnUse" x="38" y="60" width="66" height="65">
<path d="M70.9 124.799C88.8217 124.799 103.35 110.295 103.35 92.4033C103.35 74.5114 88.8217 60.0071 70.9 60.0071C52.9784 60.0071 38.45 74.5114 38.45 92.4033C38.45 110.295 52.9784 124.799 70.9 124.799Z" fill="white"/>
</mask>
<g mask="url(#mask0_4_54)">
<path d="M89.45 122.354C89.45 122.354 82.6 129.342 73.5 129.242C64.4 129.142 52.1 125.149 50.5 121.305C50.5 121.305 58.8 121.355 61.35 113.967C61.85 112.47 62.15 110.673 62.05 108.526C78.5 107.478 78.5 107.478 78.5 107.478C78.5 107.478 78.45 107.778 78.4 108.327C78.35 111.072 78.85 119.358 89.45 122.354Z" fill="#FF866D"/>
<path d="M78.45 108.377C75.8 113.368 65.2 113.967 61.4 114.017C61.9 112.52 62.2 110.723 62.1 108.576C78.55 107.528 78.55 107.528 78.55 107.528C78.55 107.528 78.45 107.828 78.45 108.377Z" fill="#371841"/>
<path d="M54.6 82.0205C53.8 84.4165 53.5 103.635 61.75 108.327C70 113.019 82.9 112.32 84.35 92.3034C85.8 72.2368 76.75 72.3865 76.75 72.3865L54.6 82.0205Z" fill="#FF866D"/>
<path d="M58.3 66.7958C63.3 63.4015 67.35 66.3466 68.65 65.9972C69.95 65.6477 79.25 64.2501 82.3 69.0421C85.6 70.5895 90.25 72.8857 87.95 81.1719C88.8 83.1187 92.55 92.4033 83.9 94.4499C83.9 94.4499 83.4 84.9656 82.75 83.9673C82.15 82.969 78.65 79.1253 80.15 75.6811C80.15 75.6811 78.65 74.6328 77.7 76.2801C76.75 77.9273 72.1 78.9756 69.2 77.4282C67.25 79.0754 65.15 82.919 59.75 81.5214C59.75 81.5214 58.4 81.122 58.2 82.2202C58 83.3184 56.75 86.2635 54.5 85.8642C54.5 85.8642 54.4 94.5497 55.1 95.598C55.1 95.598 52.8 93.5015 51.55 92.7527C50.35 92.0039 47.45 88.8592 48.9 85.1653C50.3 81.4714 51 78.4265 51 77.3783C51 76.33 51.2 75.0321 53.1 73.6345C53.8 70.7393 58.3 66.7958 58.3 66.7958Z" fill="#371841"/>
<path d="M82.55 101.039C82.55 101.039 85.7 100.789 86.4 97.7444C87.1 94.6995 88.05 91.5547 83.75 92.1537C83.75 92.2036 84.2 97.4948 82.55 101.039Z" fill="#F16A58"/>
<path d="M54.65 92.9524C54.65 92.9524 50.75 93.3018 52.05 97.7943C53.35 102.287 56.9 102.137 56.9 102.137C56.9 102.137 54.7 94.8492 54.65 92.9524Z" fill="#F26A57"/>
<path d="M62.9 85.1653C60.1 84.9656 58.85 85.8641 57.25 88.0106C57.25 88.0106 60.3 86.3134 61.8 86.3134C63.3 86.3134 67.1 87.4116 67.1 87.4116C67.1 87.4116 66.55 85.4149 62.9 85.1653Z" fill="#371841"/>
<path d="M76.85 84.766C74.45 84.6661 71.95 86.0139 71.9 86.5131C71.85 87.0122 72.25 87.4615 73.25 87.1121C74.3 86.7626 79.05 85.0655 81.75 87.4116C81.75 87.4615 79.95 84.8658 76.85 84.766Z" fill="#371841"/>
<path d="M67.6 88.0605C67.6 88.0605 70.1 94.0505 67.85 96.8459" stroke="#E6524D" stroke-width="1.194" stroke-miterlimit="10" stroke-linecap="round" stroke-linejoin="round"/>
<path d="M63.5909 92.8331C64.1628 92.7372 64.5225 92.0423 64.3944 91.281C64.2663 90.5198 63.6988 89.9804 63.1269 90.0764C62.555 90.1723 62.1953 90.8672 62.3234 91.6284C62.4515 92.3897 63.019 92.9291 63.5909 92.8331Z" fill="#371841"/>
<path d="M75.9907 91.985C76.5626 91.8891 76.9224 91.1942 76.7942 90.4329C76.6661 89.6717 76.0987 89.1323 75.5268 89.2283C74.9549 89.3242 74.5951 90.0191 74.7232 90.7803C74.8513 91.5416 75.4188 92.081 75.9907 91.985Z" fill="#371841"/>
<path d="M69.9 103.784C66.9 103.934 65.55 100.789 65.55 100.789H73.7C73.65 100.789 72.9 103.685 69.9 103.784Z" fill="white" stroke="#E6524D" stroke-width="1.337" stroke-miterlimit="10" stroke-linecap="round" stroke-linejoin="round"/>
<path d="M100.65 131.488H40.2V128.992C40.2 123.152 44.4 118.41 49.55 118.41H60.1H78.5H91.25C96.4 118.41 100.6 123.152 100.6 128.992V131.488H100.65Z" fill="#154BE5"/>
</g>
<path d="M325.4 242.903C325.7 242.903 325.95 242.654 326 242.354C326 242.055 325.75 241.755 325.45 241.755C318.85 241.406 318.15 231.872 318.1 229.426H323.65C323.95 229.426 324.25 229.176 324.25 228.827C324.25 228.527 324 228.228 323.65 228.228H317.5C317.2 228.228 316.95 228.477 316.9 228.777C316.9 228.926 316.85 232.171 317.8 235.516C319.1 240.208 321.75 242.753 325.4 242.903Z" fill="#E5DA79"/>
<path d="M325.35 243.203C321.6 243.003 318.9 240.407 317.55 235.665C316.6 232.271 316.65 228.976 316.65 228.827C316.65 228.327 317.05 227.978 317.5 227.978H323.65C324.15 227.978 324.5 228.377 324.5 228.827C324.5 229.326 324.1 229.675 323.65 229.675H318.4C318.45 230.973 318.65 233.718 319.6 236.214C320.8 239.509 322.8 241.256 325.45 241.406C325.95 241.406 326.3 241.855 326.3 242.304C326.25 242.853 325.85 243.203 325.35 243.203ZM317.5 228.577C317.35 228.577 317.2 228.727 317.2 228.877C317.2 229.026 317.15 232.221 318.1 235.565C319.4 240.058 321.9 242.504 325.4 242.654C325.55 242.654 325.7 242.554 325.7 242.354C325.7 242.204 325.6 242.055 325.4 242.055C322.45 241.905 320.3 240.058 319 236.514C318 233.718 317.8 230.674 317.75 229.476V229.176H323.6C323.75 229.176 323.9 229.026 323.9 228.877C323.9 228.727 323.75 228.577 323.6 228.577H317.5Z" fill="black"/>
<path d="M345.25 249.293L347.6 227.629C347.65 227.279 347.55 226.93 347.3 226.68C347.05 226.431 346.75 226.281 346.4 226.281H324.45C324.1 226.281 323.75 226.431 323.5 226.68C323.25 226.93 323.15 227.279 323.2 227.629L326 249.293H345.25Z" fill="#E5DA79"/>
<path d="M324.4 226.53H346.35C346.9 226.53 347.35 227.03 347.3 227.579L345 248.993H326.25L323.5 227.579C323.4 227.03 323.85 226.53 324.4 226.53ZM324.4 225.981C323.95 225.981 323.55 226.181 323.25 226.481C322.95 226.83 322.85 227.229 322.9 227.679L325.65 249.093L325.7 249.592H326.2H345H345.5L345.55 249.093L347.85 227.679C347.9 227.229 347.75 226.83 347.45 226.481C347.15 226.181 346.75 225.981 346.3 225.981H324.4Z" fill="black"/>
<path d="M340.6 248.993H343.65L346.2 226.53H343.1L340.6 248.993Z" fill="#F9F4C3"/>
<path d="M330.2 232.82H330.25C330.5 232.77 330.65 232.57 330.6 232.321C330.6 232.221 330.2 229.975 329.1 229.026C328.45 228.427 328.4 227.08 328.4 226.58C328.4 226.331 328.25 226.131 328 226.131C327.75 226.131 327.55 226.281 327.55 226.53C327.55 226.63 327.4 228.727 328.55 229.725C329.25 230.324 329.65 231.971 329.75 232.52C329.8 232.67 329.95 232.82 330.2 232.82Z" fill="black"/>
<path d="M326.8 240.208H333.8V235.715C333.8 233.868 332.3 232.371 330.45 232.371H330.15C328.3 232.371 326.8 233.868 326.8 235.715V240.208Z" fill="#95E98E"/>
<path d="M326.5 235.266C326.5 233.519 327.9 232.121 329.65 232.121H330.95C332.7 232.121 334.1 233.519 334.1 235.266V240.507H326.5V235.266ZM333.5 235.266C333.5 233.868 332.35 232.72 330.95 232.72H329.65C328.25 232.72 327.1 233.868 327.1 235.266V239.958H333.5V235.266Z" fill="#020202"/>
<path d="M339.6 212.404C339.6 212.404 340.9 214.001 341.4 214.401C341.85 214.8 342.9 217.346 341.2 219.193C339.5 221.04 340.75 221.339 341.2 222.188C341.65 223.036 340.85 224.684 340.85 224.684C340.85 224.684 340.8 223.336 340.25 222.837C339.7 222.337 338.25 219.442 339.35 217.895C340.45 216.297 340.8 214.55 339.6 212.404Z" fill="white"/>
<path d="M334.8 212.404C334.8 212.404 336.1 214.001 336.6 214.401C337.05 214.8 338.1 217.346 336.4 219.193C334.7 221.04 335.95 221.339 336.4 222.188C336.85 223.036 336.05 224.684 336.05 224.684C336.05 224.684 336 223.336 335.45 222.837C334.9 222.337 333.45 219.442 334.55 217.895C335.65 216.297 336 214.55 334.8 212.404Z" fill="white"/>
<path d="M330.1 212.404C330.1 212.404 331.4 214.001 331.9 214.401C332.35 214.8 333.4 217.346 331.7 219.193C330 221.04 331.25 221.339 331.7 222.188C332.15 223.036 331.35 224.684 331.35 224.684C331.35 224.684 331.3 223.336 330.75 222.837C330.2 222.337 328.75 219.442 329.85 217.895C330.95 216.297 331.3 214.55 330.1 212.404Z" fill="white"/>
<defs>
<linearGradient id="paint0_linear_4_54" x1="2.69691" y1="179.909" x2="21.0931" y2="170.796" gradientUnits="userSpaceOnUse">
<stop stop-color="#FF644E"/>
<stop offset="1" stop-color="#F92C16"/>
</linearGradient>
<linearGradient id="paint1_linear_4_54" x1="58.1827" y1="165.142" x2="69.2762" y2="187.312" gradientUnits="userSpaceOnUse">
<stop stop-color="#FFA100"/>
<stop offset="1" stop-color="#F76806"/>
</linearGradient>
<linearGradient id="paint2_linear_4_54" x1="5.69606" y1="213.275" x2="17.6379" y2="200.926" gradientUnits="userSpaceOnUse">
<stop stop-color="#962C61"/>
<stop offset="1" stop-color="#D83084"/>
</linearGradient>
<linearGradient id="paint3_linear_4_54" x1="33.3076" y1="209.425" x2="35.7278" y2="193.591" gradientUnits="userSpaceOnUse">
<stop stop-color="#FF644E"/>
<stop offset="1" stop-color="#F92C16"/>
</linearGradient>
<linearGradient id="paint4_linear_4_54" x1="44.5428" y1="213.982" x2="46.6177" y2="230.642" gradientUnits="userSpaceOnUse">
<stop stop-color="#962C61"/>
<stop offset="1" stop-color="#D83084"/>
</linearGradient>
</defs>
</svg>
